<?xml version="1.0" standalone="no"?>
<!DOCTYPE svg PUBLIC "-//W3C//DTD SVG 20010904//EN"
 "http://www.w3.org/TR/2001/REC-SVG-20010904/DTD/svg10.dtd">
<svg version="1.0" xmlns="http://www.w3.org/2000/svg"
 width="1280.000000pt" height="768.000000pt" viewBox="0 0 1280.000000 768.000000"
 preserveAspectRatio="xMidYMid meet">
<metadata>
Created by potrace 1.15, written by Peter Selinger 2001-2017
</metadata>
<g transform="translate(0.000000,768.000000) scale(0.100000,-0.100000)"
fill="#e91e63" stroke="none">
<path d="M5378 7010 c-164 -26 -301 -85 -411 -176 -123 -101 -212 -240 -263
-409 -32 -109 -44 -310 -25 -421 84 -485 539 -1040 1461 -1780 l119 -95 113
87 c889 683 1386 1298 1468 1816 20 121 8 304 -25 408 -80 252 -251 429 -501
519 -279 101 -560 76 -774 -69 -75 -51 -225 -193 -265 -250 -15 -22 -30 -40
-34 -40 -3 0 -24 28 -45 61 -47 73 -142 171 -209 218 -65 44 -178 95 -257 115
-78 20 -272 29 -352 16z m322 -56 c41 -9 113 -34 160 -56 113 -54 226 -165
288 -284 l42 -82 -39 -83 c-80 -171 -114 -346 -92 -473 12 -67 49 -181 57
-173 2 2 -3 24 -12 48 -37 106 -35 282 6 419 24 80 79 195 112 235 13 17 39
51 56 77 37 53 132 147 200 196 79 56 212 118 307 142 72 18 115 23 215 22
270 -2 447 -68 603 -225 62 -62 86 -96 122 -170 104 -215 113 -433 30 -684
-119 -356 -434 -756 -872 -1107 -78 -63 -268 -196 -280 -196 -3 0 -28 -13 -54
-30 -27 -16 -49 -26 -49 -22 0 4 -22 -33 -48 -83 -47 -90 -89 -156 -144 -227
l-29 -38 -22 24 c-12 13 -71 65 -132 117 -415 353 -702 651 -1025 1064 -225
289 -329 494 -361 714 -48 334 115 678 381 808 177 87 371 109 580 67z"/>
<path d="M1496 6949 c-33 -11 -78 -33 -101 -49 -124 -86 -173 -197 -300 -685
-96 -368 -185 -528 -343 -617 -56 -32 -58 -49 -8 -62 13 -3 26 -12 29 -20 3
-8 -17 -56 -44 -108 -181 -337 -313 -671 -295 -743 9 -34 32 -44 161 -65 129
-22 211 -48 267 -85 52 -35 58 -66 24 -130 -92 -169 -157 -303 -182 -376 -26
-75 -29 -98 -29 -206 0 -68 -3 -123 -7 -123 -14 0 -89 106 -118 167 -17 35
-40 101 -50 146 -21 84 -83 552 -95 712 -4 50 -13 122 -20 162 -19 99 -74 203
-107 203 -26 0 18 -879 58 -1170 40 -283 132 -463 273 -535 91 -46 163 -58
318 -53 124 4 143 3 149 -11 10 -24 21 -1372 12 -1400 -5 -13 -30 -51 -57 -85
-69 -87 -99 -153 -112 -243 -12 -87 -28 -119 -67 -134 -69 -27 -185 -49 -352
-69 -185 -20 -291 -39 -344 -59 -29 -12 -29 -12 -23 -76 9 -94 44 -135 115
-135 44 0 70 26 88 85 8 31 23 59 33 64 43 23 247 43 499 48 302 6 281 15 231
-100 -51 -114 -69 -177 -69 -232 0 -65 22 -95 85 -119 39 -15 51 -16 76 -6 48
20 67 71 84 227 18 157 29 206 50 223 11 9 62 8 232 -5 229 -17 492 -43 503
-50 4 -3 10 -32 14 -66 7 -70 18 -89 52 -89 41 0 104 31 118 59 25 47 38 109
27 129 -12 22 -106 73 -176 96 -79 25 -207 44 -380 55 -88 6 -176 14 -196 17
l-36 5 -7 67 c-9 82 -43 187 -97 295 -40 78 -42 88 -52 214 -13 181 6 1267 22
1287 36 43 436 57 630 21 l104 -19 51 58 c32 35 59 56 72 56 50 0 109 -79 147
-193 18 -54 21 -91 23 -277 3 -258 12 -302 127 -600 125 -324 142 -424 125
-750 -6 -102 -7 -241 -4 -310 8 -184 29 -240 89 -240 l29 0 -7 99 c-7 103 2
158 31 181 17 15 38 2 198 -118 180 -134 320 -179 478 -154 89 14 148 30 148
40 0 23 -112 128 -213 200 -63 45 -138 108 -166 139 -122 136 -226 423 -275
758 -22 150 -34 268 -61 630 -34 459 -55 631 -101 860 -35 175 -39 183 -82
194 -149 40 -281 60 -642 96 -345 35 -480 58 -502 85 -40 49 -29 189 22 289
26 53 55 71 111 71 60 0 173 29 282 74 49 19 143 47 209 61 144 32 193 52 247
100 l40 36 20 -40 c34 -65 78 -80 83 -28 3 27 7 32 30 32 39 1 41 7 18 56 -11
24 -20 58 -20 75 0 28 -5 34 -42 49 -27 11 -70 18 -114 18 -63 0 -82 -4 -150
-37 -44 -21 -94 -45 -112 -52 l-33 -15 -21 47 c-56 128 -141 127 -285 -4 -94
-85 -135 -114 -145 -104 -11 11 7 93 29 136 9 17 45 62 80 100 63 67 113 151
113 191 0 11 -25 56 -56 102 l-57 82 22 36 c11 20 21 49 21 64 0 25 -5 30 -37
36 -58 10 -105 47 -138 106 -24 45 -30 68 -33 142 -5 98 10 154 55 208 60 71
115 73 210 9 32 -22 70 -40 84 -40 37 0 89 60 134 156 21 44 51 98 67 121 l29
43 -23 42 c-34 66 -30 185 11 302 17 50 31 101 31 115 0 66 -126 198 -243 256
-154 75 -363 98 -491 54z m-532 -1794 c11 -89 15 -221 7 -234 -10 -16 -164
-12 -180 4 -8 8 12 58 62 162 71 149 72 151 89 130 10 -12 19 -40 22 -62z"/>
<path d="M11040 6914 c-110 -29 -255 -109 -403 -221 l-57 -44 59 -112 c75
-140 110 -247 118 -356 6 -81 8 -86 48 -131 23 -26 54 -78 69 -115 35 -88 61
-124 101 -141 36 -15 47 -13 159 31 38 14 81 25 95 23 25 -3 26 -5 24 -68 -7
-207 -11 -239 -33 -270 -31 -44 -76 -148 -94 -216 -24 -95 -44 -252 -66 -509
-21 -244 -29 -277 -67 -289 -70 -22 -297 -58 -388 -63 -191 -9 -302 27 -430
137 -38 34 -83 68 -99 77 -43 23 -111 12 -198 -31 -89 -44 -123 -75 -113 -105
5 -18 15 -21 58 -22 96 -1 149 -14 174 -44 13 -15 22 -30 19 -32 -3 -3 -132 5
-287 18 l-281 23 -19 -23 c-11 -13 -19 -34 -19 -46 0 -13 -5 -36 -10 -51 -10
-26 -11 -26 -98 -22 -134 6 -194 38 -393 206 -81 67 -87 75 -93 119 -7 56 -8
258 -1 251 3 -3 14 -40 24 -81 31 -131 52 -146 153 -107 29 11 63 20 76 20 14
0 22 6 22 18 0 22 -124 623 -185 895 -78 348 -219 889 -248 947 -8 16 -23 26
-42 28 -28 4 -141 -24 -157 -38 -4 -3 10 -87 32 -185 73 -338 126 -680 155
-1010 18 -208 31 -649 21 -728 -8 -63 -12 -68 -159 -202 -34 -32 -57 -62 -61
-81 l-7 -31 -207 -6 c-114 -4 -327 -10 -474 -14 l-268 -6 0 -139 c0 -124 2
-138 18 -140 9 -1 177 -2 372 -2 368 -1 387 -3 406 -43 4 -10 10 -669 12
-1464 l4 -1446 87 -6 c55 -4 105 -2 136 6 l50 12 6 1420 c4 781 10 1444 14
1473 l8 53 965 -2 966 -1 23 28 22 28 88 -22 c48 -12 135 -31 192 -42 58 -11
125 -30 150 -42 45 -23 46 -24 49 -76 2 -30 -2 -60 -8 -67 -6 -8 -82 -37 -168
-66 -335 -111 -894 -330 -1118 -439 -210 -102 -234 -137 -234 -342 0 -212 -32
-334 -175 -669 -191 -445 -270 -695 -237 -745 4 -7 25 -20 47 -30 60 -28 58
-52 -11 -124 -59 -62 -64 -65 -314 -183 -112 -53 -220 -131 -203 -148 14 -14
355 -32 479 -25 127 6 213 24 279 56 l39 20 31 -29 c45 -43 86 -60 170 -72 92
-12 115 -2 133 59 15 51 15 97 -2 202 -21 131 -11 187 76 415 28 71 74 217
104 325 72 264 80 288 87 270 4 -8 37 -183 75 -388 38 -205 72 -375 75 -378 3
-4 64 -15 134 -25 160 -23 177 -30 197 -80 20 -51 20 -88 0 -119 -40 -60 -137
-148 -234 -212 -105 -69 -140 -108 -140 -155 0 -12 8 -29 17 -38 25 -25 154
-15 261 19 74 24 208 95 254 133 14 13 19 12 37 -6 31 -31 67 -36 125 -18 95
31 112 47 125 119 16 91 13 251 -4 328 -9 36 -42 121 -74 190 -72 153 -193
509 -220 645 -42 209 -52 459 -20 490 20 20 588 31 639 13 l35 -13 -3 -190
c-3 -164 0 -219 24 -400 24 -178 28 -246 28 -445 0 -203 -3 -248 -21 -330 -38
-173 -90 -276 -166 -331 -47 -34 -42 -33 -347 -94 -129 -26 -238 -50 -242 -54
-4 -4 -2 -46 5 -94 l11 -87 77 0 77 0 12 34 c40 123 145 149 432 106 217 -32
292 -25 423 40 74 37 86 40 162 40 45 0 162 -11 260 -24 98 -14 221 -28 273
-31 55 -4 105 -13 118 -22 13 -8 32 -35 43 -61 29 -68 45 -82 93 -82 73 1 106
44 106 139 l0 60 -41 11 c-72 20 -178 38 -374 65 -239 33 -420 63 -465 77 -46
14 -79 44 -100 93 -42 95 -81 358 -100 680 -11 184 -12 841 -1 890 l6 30 220
2 c121 1 234 5 252 8 42 8 79 51 135 161 105 205 145 412 188 964 33 427 60
688 82 790 33 155 25 217 -35 254 -25 16 -30 3 -61 -152 -47 -244 -133 -894
-186 -1407 -34 -336 -100 -475 -223 -475 -18 0 -37 3 -40 6 -3 4 9 25 28 47
50 59 130 219 160 322 51 178 54 379 5 519 -26 76 -25 97 5 187 82 239 108
746 56 1096 -45 300 -126 557 -207 653 -16 18 -59 46 -101 65 -97 45 -130 72
-221 179 l-76 91 -1 180 c-1 204 -15 273 -84 420 -45 96 -97 147 -172 169 -66
20 -215 20 -289 0z"/>
<path d="M3876 6678 c-8 -13 -20 -45 -26 -71 -6 -27 -26 -99 -44 -160 -90
-298 -185 -686 -306 -1252 -43 -203 -80 -381 -82 -393 -3 -21 5 -26 72 -48
133 -42 147 -34 186 110 l23 81 0 -140 c0 -92 -4 -147 -12 -161 -7 -12 -47
-50 -90 -85 -189 -154 -261 -193 -379 -204 -94 -9 -114 6 -133 97 -11 54 -1
54 -480 19 -71 -5 -183 -13 -247 -16 l-118 -7 0 -34 c0 -19 -1 -35 -2 -35 -2
-1 -64 -4 -138 -8 l-135 -6 0 -145 0 -145 950 -8 c523 -4 960 -10 972 -13 13
-2 25 -14 28 -27 9 -41 10 -1156 1 -2063 l-9 -901 30 -12 c18 -7 70 -11 143
-9 l115 3 7 1145 c5 1032 20 1797 34 1835 10 26 69 29 437 27 l367 -3 0 136
c0 74 1 138 3 143 3 9 25 8 -500 28 l-462 18 -16 43 c-13 33 -37 60 -101 114
-46 38 -91 83 -99 99 -27 52 -18 519 16 865 28 287 92 673 164 986 19 84 35
158 35 164 0 13 -124 55 -163 55 -17 0 -32 -8 -41 -22z"/>
<path d="M6160 3699 c-355 -43 -659 -256 -822 -574 -100 -196 -136 -390 -116
-632 37 -476 329 -839 767 -953 178 -47 445 -48 686 -2 l90 17 3 124 c2 110 1
123 -13 117 -36 -14 -217 -46 -320 -57 -469 -50 -809 171 -922 600 -23 84 -26
116 -26 261 0 190 15 266 83 408 51 107 90 163 167 239 162 159 389 244 613
229 225 -15 382 -85 518 -231 118 -126 181 -282 204 -502 18 -172 -8 -373 -68
-523 l-16 -40 -109 0 -109 0 0 515 0 515 -145 0 -145 0 0 -35 0 -35 -47 31
c-258 163 -606 -27 -700 -381 -13 -49 -17 -102 -16 -215 1 -238 47 -369 173
-496 77 -78 145 -108 260 -116 102 -7 180 9 273 56 42 21 79 36 81 32 2 -3 6
-23 10 -43 l7 -38 323 0 323 0 41 88 c87 186 125 360 125 572 0 331 -98 580
-313 790 -180 176 -407 271 -680 284 -58 3 -139 1 -180 -5z m263 -737 l47 -21
0 -325 0 -324 -60 -41 c-65 -43 -125 -58 -187 -46 -127 24 -180 117 -190 336
-11 232 42 373 162 431 52 25 160 20 228 -10z"/>
</g>
</svg>
